<svg width="15" height="15" viewBox="0 0 15 15" fill="none" xmlns="http://www.w3.org/2000/svg">
<path d="M5.70917 1.65625C5.70917 0.99544 6.24544 0.459167 6.90625 0.459167H7.96875C8.62956 0.459167 9.16583 0.99544 9.16583 1.65625V13.3438C9.16583 14.0046 8.62956 14.5408 7.96875 14.5408H6.90625C6.24544 14.5408 5.70917 14.0046 5.70917 13.3438V1.65625ZM0.396667 8.03125C0.396667 7.37044 0.93294 6.83417 1.59375 6.83417H2.65625C3.31706 6.83417 3.85333 7.37044 3.85333 8.03125V13.3438C3.85333 14.0046 3.31706 14.5408 2.65625 14.5408H1.59375C0.93294 14.5408 0.396667 14.0046 0.396667 13.3438V8.03125ZM12.2188 2.58417H13.2812C13.9421 2.58417 14.4783 3.12044 14.4783 3.78125V13.3438C14.4783 14.0046 13.9421 14.5408 13.2812 14.5408H12.2188C11.5579 14.5408 11.0217 14.0046 11.0217 13.3438V3.78125C11.0217 3.12044 11.5579 2.58417 12.2188 2.58417Z" stroke="#2D2926" stroke-width="0.793333"/>
</svg>
