<svg width="12" height="12" viewBox="0 0 12 12" fill="none" xmlns="http://www.w3.org/2000/svg">
<path d="M9.64997 11.7332L5.44997 7.5165C5.21663 7.6165 4.97775 7.69428 4.7333 7.74984C4.48886 7.80539 4.2333 7.83317 3.96663 7.83317C2.89997 7.83317 1.99441 7.46095 1.24997 6.7165C0.505523 5.97206 0.133301 5.0665 0.133301 3.99984C0.133301 3.65539 0.175079 3.32495 0.258634 3.0085C0.341745 2.69162 0.466634 2.39428 0.633301 2.1165L3.0333 4.49984L4.46663 3.0665L2.0833 0.683171C2.37219 0.527615 2.67219 0.402504 2.9833 0.307837C3.29441 0.213615 3.62219 0.166504 3.96663 0.166504C5.02219 0.166504 5.92508 0.538726 6.6753 1.28317C7.42508 2.02762 7.79997 2.93317 7.79997 3.99984C7.79997 4.27762 7.77219 4.53873 7.71663 4.78317C7.66108 5.02762 7.5833 5.26095 7.4833 5.48317L11.7 9.68317C11.8111 9.80539 11.8666 9.94984 11.8666 10.1165C11.8666 10.2832 11.8111 10.4221 11.7 10.5332L10.4833 11.7498C10.3722 11.8609 10.2362 11.9165 10.0753 11.9165C9.91397 11.9165 9.77219 11.8554 9.64997 11.7332ZM10.0833 10.7332L10.6833 10.1332L6.24997 5.68317C6.43886 5.44984 6.57775 5.18584 6.66663 4.89117C6.75552 4.59695 6.79997 4.29984 6.79997 3.99984C6.79997 3.25539 6.53619 2.59984 6.00863 2.03317C5.48063 1.4665 4.81108 1.18873 3.99997 1.19984L5.44997 2.64984C5.56108 2.77206 5.61952 2.91095 5.6253 3.0665C5.63063 3.22206 5.57775 3.35539 5.46663 3.4665L3.44997 5.48317C3.32775 5.60539 3.18619 5.6665 3.0253 5.6665C2.86397 5.6665 2.72775 5.60539 2.61663 5.48317L1.16663 4.03317C1.16663 4.88873 1.45263 5.56939 2.02463 6.07517C2.59708 6.5805 3.24441 6.83317 3.96663 6.83317C4.25552 6.83317 4.54441 6.78873 4.8333 6.69984C5.12219 6.61095 5.38886 6.47761 5.6333 6.29984L10.0833 10.7332Z" fill="#2D2926"/>
</svg>
