<svg width="17" height="16" viewBox="0 0 17 16" fill="none" xmlns="http://www.w3.org/2000/svg">
<path d="M13.0229 9.63623H6.67529V8.3667H13.0229V9.63623ZM13.0229 7.09717H3.28988V5.82764H13.0229V7.09717ZM13.0229 4.55811H3.28988V3.28857H13.0229V4.55811ZM16.1968 15.8146V1.63818C16.1968 1.21501 16.0487 0.855306 15.7524 0.559082C15.4562 0.262858 15.0965 0.114746 14.6733 0.114746H1.63948C1.21631 0.114746 0.856606 0.262858 0.560382 0.559082C0.264158 0.855306 0.116047 1.21501 0.116047 1.63818V11.2866C0.116047 11.7098 0.264158 12.0695 0.560382 12.3657C0.856606 12.6619 1.21631 12.8101 1.63948 12.8101H13.1922L16.1968 15.8146ZM14.9272 12.7466L13.7212 11.5405H1.63948C1.56895 11.5405 1.50886 11.5157 1.45921 11.466C1.41012 11.417 1.38558 11.3572 1.38558 11.2866V1.63818C1.38558 1.56765 1.41012 1.50756 1.45921 1.45791C1.50886 1.40882 1.56895 1.38428 1.63948 1.38428H14.6733C14.7439 1.38428 14.8037 1.40882 14.8528 1.45791C14.9024 1.50756 14.9272 1.56765 14.9272 1.63818V12.7466ZM14.9272 1.63818V1.38428V12.7466V1.63818Z" fill="#2D2926"/>
</svg>
