<svg width="16" height="16" viewBox="0 0 16 16" fill="none" xmlns="http://www.w3.org/2000/svg">
<mask id="mask0_1001_22626" style="mask-type:alpha" maskUnits="userSpaceOnUse" x="0" y="0" width="16" height="16">
<rect width="16" height="16" fill="#D9D9D9"/>
</mask>
<g mask="url(#mask0_1001_22626)">
<path d="M8.00033 11.7503C8.18921 11.7503 8.34766 11.6837 8.47566 11.5503C8.60321 11.417 8.66699 11.2559 8.66699 11.067C8.66699 10.8781 8.60321 10.717 8.47566 10.5837C8.34766 10.4503 8.18921 10.3837 8.00033 10.3837C7.80032 10.3837 7.63655 10.4503 7.50899 10.5837C7.38099 10.717 7.31699 10.8781 7.31699 11.067C7.31699 11.2559 7.38099 11.417 7.50899 11.5503C7.63655 11.6837 7.80032 11.7503 8.00033 11.7503ZM7.51699 9.35032H8.46699C8.46699 9.0281 8.51144 8.76966 8.60032 8.57499C8.68921 8.38077 8.90033 8.11699 9.23366 7.78366C9.53366 7.49477 9.76144 7.22521 9.91699 6.97499C10.0725 6.72521 10.1503 6.43366 10.1503 6.10033C10.1503 5.52255 9.94477 5.07255 9.53366 4.75033C9.12255 4.4281 8.63366 4.26699 8.06699 4.26699C7.51144 4.26699 7.05032 4.41699 6.68366 4.71699C6.31699 5.01699 6.05588 5.36699 5.90033 5.76699L6.76699 6.10033C6.84477 5.88921 6.98099 5.6781 7.17566 5.46699C7.36988 5.25588 7.66144 5.15033 8.05032 5.15033C8.45033 5.15033 8.74477 5.25855 8.93366 5.47499C9.12255 5.69188 9.21699 5.9281 9.21699 6.18366C9.21699 6.40588 9.15032 6.61144 9.01699 6.80032C8.88366 6.98921 8.71699 7.17255 8.51699 7.35033C8.08366 7.73921 7.80877 8.05321 7.69233 8.29233C7.57544 8.53099 7.51699 8.88366 7.51699 9.35032ZM8.00033 14.3337C7.12255 14.3337 6.29766 14.167 5.52566 13.8337C4.75321 13.5003 4.08366 13.0503 3.51699 12.4837C2.95033 11.917 2.50033 11.2474 2.16699 10.475C1.83366 9.70299 1.66699 8.8781 1.66699 8.00033C1.66699 7.12255 1.83366 6.29744 2.16699 5.52499C2.50033 4.75299 2.95033 4.08366 3.51699 3.51699C4.08366 2.95033 4.75321 2.50033 5.52566 2.16699C6.29766 1.83366 7.12255 1.66699 8.00033 1.66699C8.8781 1.66699 9.70321 1.83366 10.4757 2.16699C11.2477 2.50033 11.917 2.95033 12.4837 3.51699C13.0503 4.08366 13.5003 4.75299 13.8337 5.52499C14.167 6.29744 14.3337 7.12255 14.3337 8.00033C14.3337 8.8781 14.167 9.70299 13.8337 10.475C13.5003 11.2474 13.0503 11.917 12.4837 12.4837C11.917 13.0503 11.2477 13.5003 10.4757 13.8337C9.70321 14.167 8.8781 14.3337 8.00033 14.3337ZM8.00033 13.3337C9.48921 13.3337 10.7503 12.817 11.7837 11.7837C12.817 10.7503 13.3337 9.48921 13.3337 8.00033C13.3337 6.51144 12.817 5.25033 11.7837 4.21699C10.7503 3.18366 9.48921 2.66699 8.00033 2.66699C6.51144 2.66699 5.25033 3.18366 4.21699 4.21699C3.18366 5.25033 2.66699 6.51144 2.66699 8.00033C2.66699 9.48921 3.18366 10.7503 4.21699 11.7837C5.25033 12.817 6.51144 13.3337 8.00033 13.3337Z" fill="#2D2926"/>
</g>
</svg>
