<svg width="11" height="11" viewBox="0 0 11 11" fill="none" xmlns="http://www.w3.org/2000/svg">
<path d="M3.57079 8.28525C3.71663 8.28525 3.84068 8.23412 3.94296 8.13184C4.04485 8.02995 4.09579 7.90609 4.09579 7.76025C4.09579 7.61442 4.04485 7.49289 3.94296 7.39567C3.84068 7.29845 3.71663 7.24984 3.57079 7.24984C3.42496 7.24984 3.30343 7.29845 3.20621 7.39567C3.10899 7.49289 3.06038 7.61442 3.06038 7.76025C3.06038 7.90609 3.10899 8.02995 3.20621 8.13184C3.30343 8.23412 3.42496 8.28525 3.57079 8.28525ZM3.57079 6.01025C3.71663 6.01025 3.84068 5.96164 3.94296 5.86442C4.04485 5.7672 4.09579 5.64567 4.09579 5.49984C4.09579 5.354 4.04485 5.23248 3.94296 5.13525C3.84068 5.03803 3.71663 4.98942 3.57079 4.98942C3.42496 4.98942 3.30343 5.03803 3.20621 5.13525C3.10899 5.23248 3.06038 5.354 3.06038 5.49984C3.06038 5.64567 3.10899 5.7672 3.20621 5.86442C3.30343 5.96164 3.42496 6.01025 3.57079 6.01025ZM3.57079 3.74984C3.71663 3.74984 3.84068 3.70123 3.94296 3.604C4.04485 3.50678 4.09579 3.38525 4.09579 3.23942C4.09579 3.09359 4.04485 2.96953 3.94296 2.86725C3.84068 2.76537 3.71663 2.71442 3.57079 2.71442C3.42496 2.71442 3.30343 2.76537 3.20621 2.86725C3.10899 2.96953 3.06038 3.09359 3.06038 3.23942C3.06038 3.38525 3.10899 3.50678 3.20621 3.604C3.30343 3.70123 3.42496 3.74984 3.57079 3.74984ZM5.34996 8.19775H8.67496V7.32275H5.34996V8.19775ZM5.34996 5.93734H8.67496V5.06234H5.34996V5.93734ZM5.34996 3.67692H8.67496V2.80192H5.34996V3.67692ZM1.96663 10.4582C1.67496 10.4582 1.42704 10.3561 1.22288 10.1519C1.01871 9.94775 0.916626 9.69984 0.916626 9.40817V1.5915C0.916626 1.29984 1.01871 1.05192 1.22288 0.847754C1.42704 0.643587 1.67496 0.541504 1.96663 0.541504H9.78329C10.075 0.541504 10.3229 0.643587 10.527 0.847754C10.7312 1.05192 10.8333 1.29984 10.8333 1.5915V9.40817C10.8333 9.69984 10.7312 9.94775 10.527 10.1519C10.3229 10.3561 10.075 10.4582 9.78329 10.4582H1.96663ZM1.96663 9.58317H9.78329C9.82218 9.58317 9.86107 9.56373 9.89996 9.52484C9.93885 9.48595 9.95829 9.44706 9.95829 9.40817V1.5915C9.95829 1.55262 9.93885 1.51373 9.89996 1.47484C9.86107 1.43595 9.82218 1.4165 9.78329 1.4165H1.96663C1.92774 1.4165 1.88885 1.43595 1.84996 1.47484C1.81107 1.51373 1.79163 1.55262 1.79163 1.5915V9.40817C1.79163 9.44706 1.81107 9.48595 1.84996 9.52484C1.88885 9.56373 1.92774 9.58317 1.96663 9.58317Z" fill="#585858"/>
</svg>
