<svg width="18" height="18" viewBox="0 0 18 18" fill="none" xmlns="http://www.w3.org/2000/svg">
<circle cx="9" cy="9" r="9" fill="#FFF7E9"/>
<g clip-path="url(#clip0_998_21300)">
<path d="M10.0848 9.87395C11.1666 9.87395 12.0435 8.99701 12.0435 7.91525C12.0435 6.83349 11.1666 5.95654 10.0848 5.95654C9.00304 5.95654 8.1261 6.83349 8.1261 7.91525C8.1261 8.99701 9.00304 9.87395 10.0848 9.87395Z" fill="#FFB323" stroke="#FFB323" stroke-width="0.580357" stroke-linecap="round" stroke-linejoin="round"/>
<path d="M10.0848 3.60645V4.38993" stroke="#FFB323" stroke-width="0.580357" stroke-linecap="round" stroke-linejoin="round"/>
<path d="M10.0848 11.4409V12.2244" stroke="#FFB323" stroke-width="0.580357" stroke-linecap="round" stroke-linejoin="round"/>
<path d="M7.03687 4.86768L7.59314 5.42395" stroke="#FFB323" stroke-width="0.580357" stroke-linecap="round" stroke-linejoin="round"/>
<path d="M12.5764 10.4067L13.1327 10.963" stroke="#FFB323" stroke-width="0.580357" stroke-linecap="round" stroke-linejoin="round"/>
<path d="M5.77563 7.91553H6.55912" stroke="#FFB323" stroke-width="0.580357" stroke-linecap="round" stroke-linejoin="round"/>
<path d="M13.6105 7.91553H14.394" stroke="#FFB323" stroke-width="0.580357" stroke-linecap="round" stroke-linejoin="round"/>
<path d="M7.03687 10.963L7.59314 10.4067" stroke="#FFB323" stroke-width="0.580357" stroke-linecap="round" stroke-linejoin="round"/>
<path d="M12.5764 5.42395L13.1327 4.86768" stroke="#FFB323" stroke-width="0.580357" stroke-linecap="round" stroke-linejoin="round"/>
</g>
<g clip-path="url(#clip1_998_21300)">
<path d="M10.2652 9.30162H9.77161C9.62505 8.73398 9.32221 8.21884 8.8975 7.81472C8.47279 7.41061 7.94325 7.13372 7.36904 7.01553C6.79482 6.89733 6.19897 6.94257 5.64919 7.1461C5.0994 7.34963 4.61773 7.70329 4.2589 8.16689C3.90007 8.6305 3.67847 9.18546 3.61928 9.76871C3.5601 10.352 3.6657 10.9401 3.92409 11.4664C4.18247 11.9926 4.58328 12.4358 5.08098 12.7456C5.57867 13.0555 6.15329 13.2195 6.73954 13.219H10.2652C10.7847 13.219 11.2829 13.0127 11.6502 12.6453C12.0176 12.278 12.2239 11.7798 12.2239 11.2603C12.2239 10.7408 12.0176 10.2426 11.6502 9.87531C11.2829 9.50798 10.7847 9.30162 10.2652 9.30162Z" fill="#D1D1D1" stroke="#D1D1D1" stroke-width="0.492429" stroke-linecap="round" stroke-linejoin="round"/>
</g>
<defs>
<clipPath id="clip0_998_21300">
<rect width="9.40178" height="9.40179" fill="white" transform="translate(5.38379 3.21436)"/>
</clipPath>
<clipPath id="clip1_998_21300">
<rect width="9.40179" height="9.40178" fill="white" transform="translate(3.21411 5.38428)"/>
</clipPath>
</defs>
</svg>
