<svg width="18" height="18" viewBox="0 0 18 18" fill="none" xmlns="http://www.w3.org/2000/svg">
<circle cx="9" cy="9" r="9" fill="#F4F6F9"/>
<g clip-path="url(#clip0_998_21359)">
<path d="M11.815 11.1017C12.2879 11.141 12.7923 11.0911 13.1321 10.7598C13.2857 10.61 13.4154 10.4355 13.5152 10.2421C13.7265 9.83226 13.7904 9.36221 13.6962 8.91083C13.602 8.45946 13.3553 8.05424 12.9977 7.76319C12.64 7.47215 12.1931 7.313 11.732 7.31245H11.2258C11.0984 6.81927 10.8557 6.36342 10.5175 5.98246C10.1794 5.60151 9.75561 5.30637 9.28103 5.12137C8.80645 4.93636 8.2947 4.86679 7.78796 4.91839C7.28122 4.96999 6.79399 5.14128 6.36645 5.41815C5.9389 5.69501 5.58327 6.06952 5.32888 6.51081C5.07449 6.9521 4.92861 7.44752 4.90327 7.95626C4.87793 8.46499 4.97386 8.97246 5.18315 9.43684C5.32067 9.74196 5.50454 10.0227 5.72735 10.2696" fill="#D1D1D1"/>
<path d="M13.5152 10.2421C13.4992 10.2731 13.4824 10.3037 13.4649 10.3337C13.0464 11.051 12.1022 11.1255 11.2746 11.0567L7.01753 10.7029C6.42398 10.6535 5.82569 10.4511 5.48334 9.96371C5.36729 9.79849 5.26667 9.62215 5.18315 9.43684C4.97386 8.97246 4.87793 8.46499 4.90327 7.95626C4.92861 7.44752 5.07449 6.9521 5.32888 6.51081C5.58327 6.06952 5.9389 5.69501 6.36645 5.41815C6.79399 5.14128 7.28122 4.96999 7.78796 4.91839C8.2947 4.86679 8.80645 4.93636 9.28103 5.12137C9.75561 5.30637 10.1794 5.60151 10.5175 5.98246C10.8557 6.36342 11.0984 6.81927 11.2258 7.31245H11.732C12.1931 7.313 12.64 7.47215 12.9977 7.76319C13.3553 8.05424 13.602 8.45946 13.6962 8.91083C13.7904 9.36221 13.7265 9.83226 13.5152 10.2421Z" stroke="#D1D1D1" stroke-width="0.714286" stroke-linecap="round" stroke-linejoin="round"/>
<path d="M7.71423 12.1338V12.9374" stroke="#2B5386" stroke-width="0.582857" stroke-linecap="round" stroke-linejoin="round"/>
<path d="M7.71423 9.72314V10.5267" stroke="#2B5386" stroke-width="0.582857" stroke-linecap="round" stroke-linejoin="round"/>
<path d="M10.9286 12.1338V12.9374" stroke="#2B5386" stroke-width="0.582857" stroke-linecap="round" stroke-linejoin="round"/>
<path d="M10.9286 9.72314V10.5267" stroke="#2B5386" stroke-width="0.582857" stroke-linecap="round" stroke-linejoin="round"/>
<path d="M9.32141 12.9375V13.7411" stroke="#2B5386" stroke-width="0.582857" stroke-linecap="round" stroke-linejoin="round"/>
<path d="M9.32141 10.5269V11.3304" stroke="#2B5386" stroke-width="0.582857" stroke-linecap="round" stroke-linejoin="round"/>
</g>
<defs>
<clipPath id="clip0_998_21359">
<rect width="9.64286" height="9.64286" fill="white" transform="translate(4.5 4.5)"/>
</clipPath>
</defs>
</svg>
