<svg width="18" height="18" viewBox="0 0 18 18" fill="none" xmlns="http://www.w3.org/2000/svg">
<circle cx="9" cy="9" r="9" fill="#F4F6F9"/>
<path d="M8.99976 4.5V13.4077" stroke="#2B5386" stroke-width="0.609071" stroke-linecap="round"/>
<path d="M8.99976 6.21287L10.0276 5.18506" stroke="#2B5386" stroke-width="0.609071" stroke-linecap="round"/>
<path d="M8.99961 6.21287L7.9718 5.18506" stroke="#2B5386" stroke-width="0.609071" stroke-linecap="round"/>
<path d="M8.99976 11.6948L10.0276 12.7227" stroke="#2B5386" stroke-width="0.609071" stroke-linecap="round"/>
<path d="M8.99961 11.6948L7.9718 12.7227" stroke="#2B5386" stroke-width="0.609071" stroke-linecap="round"/>
<path d="M5.14258 6.72705L12.8568 11.1809" stroke="#2B5386" stroke-width="0.609071" stroke-linecap="round"/>
<path d="M6.62619 7.58324L6.24999 6.17923" stroke="#2B5386" stroke-width="0.609071" stroke-linecap="round"/>
<path d="M6.62642 7.58327L5.22241 7.95947" stroke="#2B5386" stroke-width="0.609071" stroke-linecap="round"/>
<path d="M11.3733 10.3245L12.7773 9.94827" stroke="#2B5386" stroke-width="0.609071" stroke-linecap="round"/>
<path d="M11.3733 10.3245L11.7495 11.7285" stroke="#2B5386" stroke-width="0.609071" stroke-linecap="round"/>
<path d="M12.8569 6.72705L5.14267 11.1809" stroke="#2B5386" stroke-width="0.609071" stroke-linecap="round"/>
<path d="M11.3733 7.58324L12.7773 7.95944" stroke="#2B5386" stroke-width="0.609071" stroke-linecap="round"/>
<path d="M11.3733 7.58321L11.7495 6.1792" stroke="#2B5386" stroke-width="0.609071" stroke-linecap="round"/>
<path d="M6.62619 10.3245L6.24999 11.7285" stroke="#2B5386" stroke-width="0.609071" stroke-linecap="round"/>
<path d="M6.62642 10.3244L5.22241 9.94824" stroke="#2B5386" stroke-width="0.609071" stroke-linecap="round"/>
</svg>
