<svg width="18" height="18" viewBox="0 0 18 18" fill="none" xmlns="http://www.w3.org/2000/svg">
<circle cx="9" cy="9" r="9" fill="#FFF7E9"/>
<g clip-path="url(#clip0_998_21419)">
<path d="M8.99946 11.4108C10.3309 11.4108 11.4102 10.3315 11.4102 9.00007C11.4102 7.66867 10.3309 6.58936 8.99946 6.58936C7.66806 6.58936 6.58875 7.66867 6.58875 9.00007C6.58875 10.3315 7.66806 11.4108 8.99946 11.4108Z" fill="#FFB323" stroke="#FFB323" stroke-width="0.800633" stroke-linecap="round" stroke-linejoin="round"/>
<path d="M8.99927 3.69629V4.66057" stroke="#FFB323" stroke-width="0.800633" stroke-linecap="round" stroke-linejoin="round"/>
<path d="M8.99927 13.3394V14.3036" stroke="#FFB323" stroke-width="0.800633" stroke-linecap="round" stroke-linejoin="round"/>
<path d="M5.24866 5.24902L5.9333 5.93367" stroke="#FFB323" stroke-width="0.800633" stroke-linecap="round" stroke-linejoin="round"/>
<path d="M12.0663 12.0664L12.7509 12.751" stroke="#FFB323" stroke-width="0.800633" stroke-linecap="round" stroke-linejoin="round"/>
<path d="M3.69556 9H4.65984" stroke="#FFB323" stroke-width="0.800633" stroke-linecap="round" stroke-linejoin="round"/>
<path d="M13.3387 9H14.303" stroke="#FFB323" stroke-width="0.800633" stroke-linecap="round" stroke-linejoin="round"/>
<path d="M5.24866 12.751L5.9333 12.0664" stroke="#FFB323" stroke-width="0.800633" stroke-linecap="round" stroke-linejoin="round"/>
<path d="M12.0663 5.93367L12.7509 5.24902" stroke="#FFB323" stroke-width="0.800633" stroke-linecap="round" stroke-linejoin="round"/>
</g>
<defs>
<clipPath id="clip0_998_21419">
<rect width="11.5714" height="11.5714" fill="white" transform="translate(3.21362 3.21436)"/>
</clipPath>
</defs>
</svg>
