<svg width="18" height="18" viewBox="0 0 18 18" fill="none" xmlns="http://www.w3.org/2000/svg">
<circle cx="9" cy="9" r="9" fill="#F9F9F9"/>
<g clip-path="url(#clip0_998_21314)">
<path d="M11.5147 10.7092C11.9228 10.7432 12.3534 10.6976 12.6604 10.4265C12.846 10.2625 13.001 10.0645 13.1161 9.84122C13.3274 9.43127 13.3914 8.96109 13.2971 8.50959C13.2029 8.05809 12.9563 7.65276 12.5986 7.36164C12.241 7.07051 11.7941 6.91132 11.333 6.91077H10.8267C10.6994 6.41745 10.4566 5.96147 10.1185 5.58042C9.78037 5.19936 9.35656 4.90414 8.88198 4.71908C8.4074 4.53403 7.89565 4.46444 7.38891 4.51605C6.88217 4.56767 6.39494 4.73901 5.9674 5.01595C5.53985 5.29289 5.18423 5.6675 4.92983 6.10891C4.67544 6.55032 4.52956 7.04588 4.50422 7.55475C4.47889 8.06362 4.57482 8.57123 4.7841 9.03574C4.93149 9.36285 5.13211 9.66199 5.37686 9.92141" fill="#D1D1D1"/>
<path d="M13.1161 9.84122C13.0734 9.92402 13.0253 10.0034 12.9721 10.0788C12.5589 10.6644 11.7625 10.7298 11.0483 10.6705L6.49371 10.2918C5.9815 10.2492 5.46985 10.0727 5.15831 9.6639C5.01061 9.4701 4.8849 9.25946 4.7841 9.03574C4.57482 8.57123 4.47889 8.06362 4.50422 7.55475C4.52956 7.04588 4.67544 6.55032 4.92983 6.10891C5.18423 5.6675 5.53985 5.29289 5.9674 5.01595C6.39494 4.73901 6.88217 4.56767 7.38891 4.51605C7.89565 4.46444 8.4074 4.53403 8.88198 4.71908C9.35656 4.90414 9.78037 5.19936 10.1185 5.58042C10.4566 5.96147 10.6994 6.41745 10.8267 6.91077H11.333C11.7941 6.91132 12.241 7.07051 12.5986 7.36164C12.9563 7.65276 13.2029 8.05809 13.2971 8.50959C13.3914 8.96109 13.3274 9.43127 13.1161 9.84122Z" stroke="#D1D1D1" stroke-width="0.616279" stroke-linecap="round" stroke-linejoin="round"/>
<path d="M9.32162 8.99951L7.71448 11.4102H10.1252L8.51805 13.8209" stroke="#FFB323" stroke-width="0.714286" stroke-linecap="round" stroke-linejoin="round"/>
</g>
<defs>
<clipPath id="clip0_998_21314">
<rect width="10.2857" height="10.9286" fill="white" transform="translate(3.85718 3.85693)"/>
</clipPath>
</defs>
</svg>
